<svg width="20" height="20" viewBox="0 0 20 20" fill="none" xmlns="http://www.w3.org/2000/svg">
<path d="M18.3337 6.66666V9.99999M8.54199 4.58332H5.66699C4.26686 4.58332 3.56679 4.58332 3.03201 4.8558C2.56161 5.09549 2.17916 5.47794 1.93947 5.94835C1.66699 6.48313 1.66699 7.18319 1.66699 8.58332L1.66699 9.58332C1.66699 10.3599 1.66699 10.7482 1.79386 11.0545C1.96302 11.4628 2.28747 11.7873 2.69585 11.9565C3.00214 12.0833 3.39042 12.0833 4.16699 12.0833V15.625C4.16699 15.8185 4.16699 15.9152 4.17502 15.9967C4.25296 16.788 4.879 17.414 5.6703 17.492C5.75178 17.5 5.84852 17.5 6.04199 17.5C6.23547 17.5 6.33221 17.5 6.41369 17.492C7.20498 17.414 7.83103 16.788 7.90897 15.9967C7.91699 15.9152 7.91699 15.8185 7.91699 15.625V12.0833H8.54199C10.014 12.0833 11.8147 12.8724 13.2039 13.6297C14.0143 14.0715 14.4196 14.2924 14.685 14.2599C14.9311 14.2297 15.1172 14.1192 15.2614 13.9176C15.417 13.7001 15.417 13.265 15.417 12.3947V4.27189C15.417 3.40165 15.417 2.96653 15.2614 2.74906C15.1172 2.54741 14.9311 2.4369 14.685 2.40676C14.4196 2.37426 14.0143 2.59515 13.2039 3.03695C11.8147 3.79425 10.014 4.58332 8.54199 4.58332Z" stroke="white" stroke-width="1.66667" stroke-linecap="round" stroke-linejoin="round"/>
</svg>
