<svg width="17" height="18" viewBox="0 0 17 18" fill="none" xmlns="http://www.w3.org/2000/svg">
<path d="M11.6668 5.35988V2.44376C11.6668 1.75065 11.6668 1.40409 11.5208 1.19111C11.3933 1.00503 11.1957 0.87863 10.9733 0.840783C10.7187 0.797465 10.4041 0.942693 9.77475 1.23315L2.38267 4.64488C1.82142 4.90392 1.54079 5.03344 1.33525 5.23431C1.15354 5.4119 1.01484 5.62867 0.92975 5.86807C0.833496 6.13887 0.833496 6.44795 0.833496 7.0661V11.1932M12.0835 10.7765H12.0918M0.833496 8.02655L0.833496 13.5265C0.833496 14.46 0.833496 14.9267 1.01515 15.2832C1.17494 15.5968 1.42991 15.8518 1.74351 16.0116C2.10003 16.1932 2.56674 16.1932 3.50016 16.1932H13.1668C14.1002 16.1932 14.567 16.1932 14.9235 16.0116C15.2371 15.8518 15.4921 15.5968 15.6518 15.2832C15.8335 14.9267 15.8335 14.46 15.8335 13.5265V8.02655C15.8335 7.09313 15.8335 6.62642 15.6518 6.2699C15.4921 5.9563 15.2371 5.70133 14.9235 5.54154C14.567 5.35988 14.1003 5.35988 13.1668 5.35988L3.50016 5.35988C2.56674 5.35988 2.10003 5.35988 1.74351 5.54154C1.42991 5.70133 1.17494 5.95629 1.01515 6.2699C0.833496 6.62642 0.833496 7.09313 0.833496 8.02655ZM12.5002 10.7765C12.5002 11.0067 12.3136 11.1932 12.0835 11.1932C11.8534 11.1932 11.6668 11.0067 11.6668 10.7765C11.6668 10.5464 11.8534 10.3599 12.0835 10.3599C12.3136 10.3599 12.5002 10.5464 12.5002 10.7765Z" stroke="#414651" stroke-width="1.66667" stroke-linecap="round" stroke-linejoin="round"/>
</svg>
