<svg width="19" height="17" viewBox="0 0 19 17" fill="none" xmlns="http://www.w3.org/2000/svg">
<path d="M17.5007 5.09604V8.42937M7.70898 3.0127H4.83398C3.43385 3.0127 2.73379 3.0127 2.19901 3.28519C1.7286 3.52487 1.34615 3.90732 1.10647 4.37773C0.833983 4.91251 0.833983 5.61257 0.833984 7.01271L0.833985 8.0127C0.833986 8.78927 0.833986 9.17756 0.960854 9.48384C1.13001 9.89222 1.45447 10.2167 1.86285 10.3858C2.16913 10.5127 2.55742 10.5127 3.33399 10.5127V14.0544C3.33399 14.2478 3.33399 14.3446 3.34201 14.4261C3.41995 15.2174 4.046 15.8434 4.83729 15.9213C4.91878 15.9294 5.01551 15.9294 5.20899 15.9294C5.40246 15.9294 5.4992 15.9294 5.58068 15.9213C6.37198 15.8434 6.99803 15.2174 7.07596 14.4261C7.08399 14.3446 7.08399 14.2478 7.08399 14.0544V10.5127H7.70899C9.18101 10.5127 10.9817 11.3018 12.3709 12.0591C13.1813 12.5009 13.5866 12.7218 13.852 12.6893C14.0981 12.6591 14.2842 12.5486 14.4284 12.347C14.584 12.1295 14.584 11.6944 14.584 10.8241V2.70127C14.584 1.83103 14.584 1.39591 14.4284 1.17844C14.2842 0.976787 14.0981 0.866286 13.852 0.836144C13.5866 0.803638 13.1813 1.02454 12.3709 1.46633C10.9817 2.22363 9.18101 3.0127 7.70898 3.0127Z" stroke="#013F9D" stroke-width="1.66667" stroke-linecap="round" stroke-linejoin="round"/>
</svg>
