<svg width="15" height="4" viewBox="0 0 15 4" fill="none" xmlns="http://www.w3.org/2000/svg">
<path d="M7.50065 2.49998C7.96089 2.49998 8.33398 2.12688 8.33398 1.66665C8.33398 1.20641 7.96089 0.833313 7.50065 0.833313C7.04041 0.833313 6.66732 1.20641 6.66732 1.66665C6.66732 2.12688 7.04041 2.49998 7.50065 2.49998Z" stroke="#414651" stroke-width="1.66667" stroke-linecap="round" stroke-linejoin="round"/>
<path d="M13.334 2.49998C13.7942 2.49998 14.1673 2.12688 14.1673 1.66665C14.1673 1.20641 13.7942 0.833313 13.334 0.833313C12.8737 0.833313 12.5007 1.20641 12.5007 1.66665C12.5007 2.12688 12.8737 2.49998 13.334 2.49998Z" stroke="#414651" stroke-width="1.66667" stroke-linecap="round" stroke-linejoin="round"/>
<path d="M1.66732 2.49998C2.12755 2.49998 2.50065 2.12688 2.50065 1.66665C2.50065 1.20641 2.12755 0.833313 1.66732 0.833313C1.20708 0.833313 0.833984 1.20641 0.833984 1.66665C0.833984 2.12688 1.20708 2.49998 1.66732 2.49998Z" stroke="#414651" stroke-width="1.66667" stroke-linecap="round" stroke-linejoin="round"/>
</svg>
