<svg width="17" height="16" viewBox="0 0 17 16" fill="none" xmlns="http://www.w3.org/2000/svg">
<path d="M8.33396 15.1008H15.834M0.833984 15.1008H2.22944C2.63709 15.1008 2.84091 15.1008 3.03273 15.0547C3.20279 15.0139 3.36536 14.9466 3.51448 14.8552C3.68268 14.7521 3.8268 14.608 4.11506 14.3197L14.584 3.85078C15.2744 3.16042 15.2744 2.04113 14.584 1.35077C13.8937 0.660419 12.7744 0.660419 12.084 1.35077L1.61503 11.8197C1.32678 12.108 1.18265 12.2521 1.07958 12.4203C0.988203 12.5694 0.920863 12.732 0.880035 12.9021C0.833984 13.0939 0.833984 13.2977 0.833984 13.7053V15.1008Z" stroke="white" stroke-width="1.66667" stroke-linecap="round" stroke-linejoin="round"/>
</svg>
