<svg width="19" height="17" viewBox="0 0 19 17" fill="none" xmlns="http://www.w3.org/2000/svg">
<path d="M0.833984 2.16665C0.833984 1.69994 0.833984 1.46658 0.924812 1.28832C1.00471 1.13152 1.13219 1.00404 1.28899 0.924141C1.46725 0.833313 1.70061 0.833313 2.16732 0.833313H16.1673C16.634 0.833313 16.8674 0.833313 17.0456 0.924141C17.2024 1.00404 17.3299 1.13152 17.4098 1.28832C17.5007 1.46658 17.5007 1.69994 17.5007 2.16665V2.72447C17.5007 2.94847 17.5007 3.06047 17.4733 3.16462C17.449 3.2569 17.4091 3.34434 17.3552 3.42311C17.2945 3.51201 17.2098 3.58536 17.0406 3.73206L11.7107 8.35123C11.5415 8.49794 11.4568 8.57129 11.3961 8.66018C11.3422 8.73895 11.3023 8.82639 11.278 8.91868C11.2507 9.02282 11.2507 9.13482 11.2507 9.35882V13.7153C11.2507 13.8783 11.2507 13.9597 11.2244 14.0302C11.2011 14.0924 11.1634 14.1482 11.1142 14.1929C11.0585 14.2435 10.9829 14.2738 10.8316 14.3343L7.99824 15.4676C7.69196 15.5901 7.53881 15.6514 7.41588 15.6258C7.30837 15.6035 7.21403 15.5396 7.15336 15.4481C7.08398 15.3434 7.08398 15.1785 7.08398 14.8486V9.35882C7.08398 9.13482 7.08398 9.02282 7.05661 8.91868C7.03236 8.82639 6.99243 8.73895 6.93857 8.66018C6.8778 8.57129 6.79316 8.49794 6.62389 8.35123L1.29408 3.73206C1.1248 3.58536 1.04017 3.51201 0.979394 3.42311C0.925538 3.34434 0.885612 3.2569 0.861356 3.16462C0.833984 3.06047 0.833984 2.94847 0.833984 2.72447V2.16665Z" stroke="#717680" stroke-width="1.66667" stroke-linecap="round" stroke-linejoin="round"/>
</svg>
