<svg width="22" height="20" viewBox="0 0 22 20" fill="none" xmlns="http://www.w3.org/2000/svg">
<path d="M18.3332 6.66666V9.99999M8.5415 4.58332H5.6665C4.26637 4.58332 3.56631 4.58332 3.03153 4.8558C2.56112 5.09549 2.17867 5.47794 1.93899 5.94835C1.6665 6.48313 1.6665 7.18319 1.6665 8.58332L1.6665 9.58332C1.66651 10.3599 1.66651 10.7482 1.79337 11.0545C1.96253 11.4628 2.28699 11.7873 2.69536 11.9565C3.00165 12.0833 3.38994 12.0833 4.16651 12.0833V15.625C4.16651 15.8185 4.16651 15.9152 4.17453 15.9967C4.25247 16.788 4.87852 17.414 5.66981 17.492C5.75129 17.5 5.84803 17.5 6.04151 17.5C6.23498 17.5 6.33172 17.5 6.4132 17.492C7.2045 17.414 7.83054 16.788 7.90848 15.9967C7.91651 15.9152 7.91651 15.8185 7.91651 15.625V12.0833H8.54151C10.0135 12.0833 11.8142 12.8724 13.2034 13.6297C14.0139 14.0715 14.4191 14.2924 14.6845 14.2599C14.9306 14.2297 15.1167 14.1192 15.2609 13.9176C15.4165 13.7001 15.4165 13.265 15.4165 12.3947V4.27189C15.4165 3.40165 15.4165 2.96653 15.2609 2.74906C15.1167 2.54741 14.9306 2.4369 14.6845 2.40676C14.4191 2.37426 14.0139 2.59515 13.2034 3.03695C11.8142 3.79425 10.0135 4.58332 8.5415 4.58332Z" stroke="#414651" stroke-width="1.67" stroke-linecap="round" stroke-linejoin="round"/>
</svg>
