<svg width="22" height="20" viewBox="0 0 22 20" fill="none" xmlns="http://www.w3.org/2000/svg">
<path d="M17.4999 9.58333C17.4999 13.4953 14.3285 16.6667 10.4165 16.6667C9.5192 16.6667 8.66086 16.4998 7.87081 16.1954C7.72637 16.1398 7.65415 16.112 7.59671 16.0987C7.54022 16.0857 7.49933 16.0803 7.4414 16.0781C7.3825 16.0758 7.31789 16.0825 7.18865 16.0958L2.92113 16.537C2.51427 16.579 2.31083 16.6001 2.19083 16.5269C2.08631 16.4631 2.01512 16.3566 1.99617 16.2356C1.97441 16.0968 2.07162 15.9168 2.26605 15.557L3.62909 13.034C3.74135 12.8262 3.79747 12.7223 3.82289 12.6225C3.848 12.5238 3.85407 12.4527 3.84604 12.3512C3.83791 12.2484 3.79283 12.1147 3.70266 11.8472C3.46306 11.1363 3.33318 10.375 3.33318 9.58333C3.33318 5.67132 6.5045 2.5 10.4165 2.5C14.3285 2.5 17.4999 5.67132 17.4999 9.58333Z" stroke="#414651" stroke-width="1.67" stroke-linecap="round" stroke-linejoin="round"/>
</svg>
