<svg width="22" height="20" viewBox="0 0 22 20" fill="none" xmlns="http://www.w3.org/2000/svg">
<path d="M10.0002 12.5L7.50016 9.99998M10.0002 12.5C11.1642 12.0573 12.2809 11.4989 13.3335 10.8333M10.0002 12.5V16.6666C10.0002 16.6666 12.5252 16.2083 13.3335 15C14.2335 13.65 13.3335 10.8333 13.3335 10.8333M7.50016 9.99998C7.94362 8.84951 8.502 7.7467 9.16683 6.70832C10.1378 5.1558 11.4898 3.87752 13.0943 2.99506C14.6988 2.11259 16.5024 1.65529 18.3335 1.66665C18.3335 3.93332 17.6835 7.91665 13.3335 10.8333M7.50016 9.99998H3.3335C3.3335 9.99998 3.79183 7.47498 5.00016 6.66665C6.35016 5.76665 9.16683 6.66665 9.16683 6.66665M3.75016 13.75C2.50016 14.8 2.0835 17.9166 2.0835 17.9166C2.0835 17.9166 5.20016 17.5 6.25016 16.25C6.84183 15.55 6.8335 14.475 6.17516 13.825C5.85125 13.5158 5.42457 13.3372 4.97702 13.3233C4.52946 13.3095 4.09256 13.4614 3.75016 13.75Z" stroke="#414651" stroke-width="2.004" stroke-linecap="round" stroke-linejoin="round"/>
</svg>
