<svg width="22" height="20" viewBox="0 0 22 20" fill="none" xmlns="http://www.w3.org/2000/svg">
<g clip-path="url(#clip0_12322_134)">
<path d="M9.99984 1.66669C11.0942 1.66669 12.1778 1.88224 13.1889 2.30102C14.1999 2.71981 15.1186 3.33364 15.8924 4.10747C16.6662 4.88129 17.28 5.79995 17.6988 6.811C18.1176 7.82204 18.3332 8.90568 18.3332 10M9.99984 1.66669V10M9.99984 1.66669C5.39746 1.66669 1.6665 5.39765 1.6665 10C1.6665 14.6024 5.39746 18.3334 9.99984 18.3334C14.6022 18.3334 18.3332 14.6024 18.3332 10M9.99984 1.66669C14.6022 1.66669 18.3332 5.39765 18.3332 10M18.3332 10L9.99984 10M18.3332 10C18.3332 11.3151 18.0219 12.6115 17.4249 13.7833C16.8279 14.955 15.962 15.9688 14.898 16.7418L9.99984 10" stroke="#414651" stroke-width="1.67" stroke-linecap="round" stroke-linejoin="round"/>
</g>
<defs>
<clipPath id="clip0_12322_134">
<rect width="20" height="20" fill="white"/>
</clipPath>
</defs>
</svg>
